<?xml version="1.0" encoding="iso-8859-1"?>
<!-- Generator: Adobe Illustrator 19.0.0, SVG Export Plug-In . SVG Version: 6.00 Build 0)  -->
<svg version="1.1" id="Capa_1" xmlns="http://www.w3.org/2000/svg" xmlns:xlink="http://www.w3.org/1999/xlink" x="0px" y="0px"
	 viewBox="0 0 512 512" style="enable-background:new 0 0 512 512;" xml:space="preserve">
<g>
	<g>
		<path d="M316.814,0H113.056c-33.084,0-60,26.916-60,60v392c0,33.084,26.916,60,60,60h285.889c33.084,0,60-26.916,60-60V142.856
			L316.814,0z M327.943,67.9L327.943,67.9l62.89,63.211h-42.89c-11.028,0-20-8.972-20-20V67.9z M418.945,452L418.945,452
			c-0.001,11.028-8.973,20-20.001,20H113.056c-11.028,0-20-8.972-20-20V60c0-11.028,8.972-20,20-20h174.889v71.111
			c0,33.084,26.916,60,60,60h71V452z" fill="#fff"/>
	</g>
</g>
<g>
</g>
<g>
</g>
<g>
</g>
<g>
</g>
<g>
</g>
<g>
</g>
<g>
</g>
<g>
</g>
<g>
</g>
<g>
</g>
<g>
</g>
<g>
</g>
<g>
</g>
<g>
</g>
<g>
</g>
</svg>
