<svg id="Layer_1" enable-background="new 0 0 508.259 508.259" height="512" viewBox="0 0 508.259 508.259" width="512" xmlns="http://www.w3.org/2000/svg"><path d="m457.907 43.89c-50.372-55.042-135.682-58.829-190.732-8.448l-243.442 222.792 20.254 22.131 243.442-222.792c20.689-18.935 47.509-28.675 75.534-27.439 57.974 2.568 102.818 51.563 100.25 109.544-1.241 28.019-13.318 53.878-34.009 72.813l-271.106 248.109c-27.458 25.129-70.239 23.232-95.366-4.225-25.186-27.521-23.3-70.177 4.225-95.366l260.041-237.981c5.911-5.41 13.56-8.197 21.581-7.839 16.563.733 29.377 14.731 28.643 31.298-.355 8.006-3.806 15.394-9.718 20.804l-232.377 212.663 20.254 22.131 232.377-212.664c11.823-10.82 18.725-25.596 19.434-41.607 1.469-33.125-24.152-61.129-57.286-62.597-16.011-.708-31.34 4.859-43.162 15.679l-260.041 237.982c-39.753 36.38-42.485 97.995-6.102 137.751 36.327 39.693 98.124 42.366 137.751 6.102l271.106-248.108c54.914-50.256 58.704-135.818 8.449-190.733z" fill="#fff" opacity="0.4"/></svg>